<?xml version="1.0" encoding="UTF-8"?>
<svg width="200" height="200" version="1.1" viewBox="0 0 200 200" xmlns="http://www.w3.org/2000/svg">
 <rect width="200" height="200" fill="#fff"/>
 <g fill="#6a26e0">
  <!-- Zelle Logo in the Center -->
  <path d="m70,90 h60 v20 h-60 z" fill="#6a26e0"/>
  <circle cx="100" cy="100" r="40" fill="none" stroke="#6a26e0" stroke-width="8"/>
  
  <!-- QR Code Pattern - simulated -->
  <rect x="20" y="20" width="10" height="10"/>
  <rect x="30" y="20" width="10" height="10"/>
  <rect x="40" y="20" width="10" height="10"/>
  <rect x="50" y="20" width="10" height="10"/>
  <rect x="60" y="20" width="10" height="10"/>
  <rect x="20" y="30" width="10" height="10"/>
  <rect x="60" y="30" width="10" height="10"/>
  <rect x="20" y="40" width="10" height="10"/>
  <rect x="40" y="40" width="10" height="10"/>
  <rect x="60" y="40" width="10" height="10"/>
  <rect x="20" y="50" width="10" height="10"/>
  <rect x="60" y="50" width="10" height="10"/>
  <rect x="20" y="60" width="10" height="10"/>
  <rect x="30" y="60" width="10" height="10"/>
  <rect x="40" y="60" width="10" height="10"/>
  <rect x="50" y="60" width="10" height="10"/>
  <rect x="60" y="60" width="10" height="10"/>
  
  <rect x="130" y="20" width="10" height="10"/>
  <rect x="140" y="20" width="10" height="10"/>
  <rect x="150" y="20" width="10" height="10"/>
  <rect x="160" y="20" width="10" height="10"/>
  <rect x="170" y="20" width="10" height="10"/>
  <rect x="130" y="30" width="10" height="10"/>
  <rect x="170" y="30" width="10" height="10"/>
  <rect x="130" y="40" width="10" height="10"/>
  <rect x="150" y="40" width="10" height="10"/>
  <rect x="170" y="40" width="10" height="10"/>
  <rect x="130" y="50" width="10" height="10"/>
  <rect x="170" y="50" width="10" height="10"/>
  <rect x="130" y="60" width="10" height="10"/>
  <rect x="140" y="60" width="10" height="10"/>
  <rect x="150" y="60" width="10" height="10"/>
  <rect x="160" y="60" width="10" height="10"/>
  <rect x="170" y="60" width="10" height="10"/>
  
  <rect x="20" y="130" width="10" height="10"/>
  <rect x="30" y="130" width="10" height="10"/>
  <rect x="40" y="130" width="10" height="10"/>
  <rect x="50" y="130" width="10" height="10"/>
  <rect x="60" y="130" width="10" height="10"/>
  <rect x="20" y="140" width="10" height="10"/>
  <rect x="60" y="140" width="10" height="10"/>
  <rect x="20" y="150" width="10" height="10"/>
  <rect x="40" y="150" width="10" height="10"/>
  <rect x="60" y="150" width="10" height="10"/>
  <rect x="20" y="160" width="10" height="10"/>
  <rect x="60" y="160" width="10" height="10"/>
  <rect x="20" y="170" width="10" height="10"/>
  <rect x="30" y="170" width="10" height="10"/>
  <rect x="40" y="170" width="10" height="10"/>
  <rect x="50" y="170" width="10" height="10"/>
  <rect x="60" y="170" width="10" height="10"/>
  
  <!-- Additional pattern elements -->
  <rect x="80" y="30" width="10" height="10"/>
  <rect x="100" y="40" width="10" height="10"/>
  <rect x="120" y="60" width="10" height="10"/>
  <rect x="90" y="140" width="10" height="10"/>
  <rect x="110" y="170" width="10" height="10"/>
  <rect x="140" y="130" width="10" height="10"/>
  <rect x="170" y="150" width="10" height="10"/>
 </g>
 <text x="100" y="195" text-anchor="middle" font-family="Arial" font-size="10">
   info@lahoreluxie.com
 </text>
</svg> 